<svg xmlns="http://www.w3.org/2000/svg" width="300mm" height="300mm" viewBox="0 0 300 300">
  <rect x="0" y="0" width="300" height="300" fill="none" stroke="#000" stroke-width="0.3"/>
  <g stroke="#000" stroke-width="0.2" fill="none">
    <!-- 10mm grid -->
    <line x1="0" y1="0" x2="0" y2="300" opacity="0.25"/>
    <line x1="0" y1="0" x2="300" y2="0" opacity="0.25"/>
    <line x1="10" y1="0" x2="10" y2="300" opacity="0.25"/>
    <line x1="0" y1="10" x2="300" y2="10" opacity="0.25"/>
    <line x1="20" y1="0" x2="20" y2="300" opacity="0.25"/>
    <line x1="0" y1="20" x2="300" y2="20" opacity="0.25"/>
    <line x1="30" y1="0" x2="30" y2="300" opacity="0.25"/>
    <line x1="0" y1="30" x2="300" y2="30" opacity="0.25"/>
    <line x1="40" y1="0" x2="40" y2="300" opacity="0.25"/>
    <line x1="0" y1="40" x2="300" y2="40" opacity="0.25"/>
    <line x1="50" y1="0" x2="50" y2="300" opacity="0.25"/>
    <line x1="0" y1="50" x2="300" y2="50" opacity="0.25"/>
    <line x1="60" y1="0" x2="60" y2="300" opacity="0.25"/>
    <line x1="0" y1="60" x2="300" y2="60" opacity="0.25"/>
    <line x1="70" y1="0" x2="70" y2="300" opacity="0.25"/>
    <line x1="0" y1="70" x2="300" y2="70" opacity="0.25"/>
    <line x1="80" y1="0" x2="80" y2="300" opacity="0.25"/>
    <line x1="0" y1="80" x2="300" y2="80" opacity="0.25"/>
    <line x1="90" y1="0" x2="90" y2="300" opacity="0.25"/>
    <line x1="0" y1="90" x2="300" y2="90" opacity="0.25"/>
    <line x1="100" y1="0" x2="100" y2="300" opacity="0.25"/>
    <line x1="0" y1="100" x2="300" y2="100" opacity="0.25"/>
    <line x1="110" y1="0" x2="110" y2="300" opacity="0.25"/>
    <line x1="0" y1="110" x2="300" y2="110" opacity="0.25"/>
    <line x1="120" y1="0" x2="120" y2="300" opacity="0.25"/>
    <line x1="0" y1="120" x2="300" y2="120" opacity="0.25"/>
    <line x1="130" y1="0" x2="130" y2="300" opacity="0.25"/>
    <line x1="0" y1="130" x2="300" y2="130" opacity="0.25"/>
    <line x1="140" y1="0" x2="140" y2="300" opacity="0.25"/>
    <line x1="0" y1="140" x2="300" y2="140" opacity="0.25"/>
    <line x1="150" y1="0" x2="150" y2="300" opacity="0.25"/>
    <line x1="0" y1="150" x2="300" y2="150" opacity="0.25"/>
    <line x1="160" y1="0" x2="160" y2="300" opacity="0.25"/>
    <line x1="0" y1="160" x2="300" y2="160" opacity="0.25"/>
    <line x1="170" y1="0" x2="170" y2="300" opacity="0.25"/>
    <line x1="0" y1="170" x2="300" y2="170" opacity="0.25"/>
    <line x1="180" y1="0" x2="180" y2="300" opacity="0.25"/>
    <line x1="0" y1="180" x2="300" y2="180" opacity="0.25"/>
    <line x1="190" y1="0" x2="190" y2="300" opacity="0.25"/>
    <line x1="0" y1="190" x2="300" y2="190" opacity="0.25"/>
    <line x1="200" y1="0" x2="200" y2="300" opacity="0.25"/>
    <line x1="0" y1="200" x2="300" y2="200" opacity="0.25"/>
    <line x1="210" y1="0" x2="210" y2="300" opacity="0.25"/>
    <line x1="0" y1="210" x2="300" y2="210" opacity="0.25"/>
    <line x1="220" y1="0" x2="220" y2="300" opacity="0.25"/>
    <line x1="0" y1="220" x2="300" y2="220" opacity="0.25"/>
    <line x1="230" y1="0" x2="230" y2="300" opacity="0.25"/>
    <line x1="0" y1="230" x2="300" y2="230" opacity="0.25"/>
    <line x1="240" y1="0" x2="240" y2="300" opacity="0.25"/>
    <line x1="0" y1="240" x2="300" y2="240" opacity="0.25"/>
    <line x1="250" y1="0" x2="250" y2="300" opacity="0.25"/>
    <line x1="0" y1="250" x2="300" y2="250" opacity="0.25"/>
    <line x1="260" y1="0" x2="260" y2="300" opacity="0.25"/>
    <line x1="0" y1="260" x2="300" y2="260" opacity="0.25"/>
    <line x1="270" y1="0" x2="270" y2="300" opacity="0.25"/>
    <line x1="0" y1="270" x2="300" y2="270" opacity="0.25"/>
    <line x1="280" y1="0" x2="280" y2="300" opacity="0.25"/>
    <line x1="0" y1="280" x2="300" y2="280" opacity="0.25"/>
    <line x1="290" y1="0" x2="290" y2="300" opacity="0.25"/>
    <line x1="0" y1="290" x2="300" y2="290" opacity="0.25"/>
    <line x1="300" y1="0" x2="300" y2="300" opacity="0.25"/>
    <line x1="0" y1="300" x2="300" y2="300" opacity="0.25"/>
  </g>
  <g stroke="#000" stroke-width="0.6" fill="none">
    <rect x="15" y="15" width="270" height="270"/>
    <circle cx="150" cy="150" r="3"/>
    <rect x="40" y="130" width="20" height="40"/>
    <rect x="240" y="130" width="20" height="40"/>
    <rect x="130" y="40" width="40" height="20"/>
    <rect x="130" y="240" width="40" height="20"/>
  </g>
  <text x="10" y="295" font-size="6">Adjustable-Jig-Base-01 · 300×300mm · placeholder template</text>
</svg>
